<svg width="812" height="69" viewBox="0 0 812 69" fill="none" xmlns="http://www.w3.org/2000/svg">
<path d="M9.248 6.328V33.976C9.248 37.0053 10.0373 39.3307 11.616 40.952C13.1947 42.5307 15.4133 43.32 18.272 43.32C21.1733 43.32 23.4133 42.5307 24.992 40.952C26.5707 39.3307 27.36 37.0053 27.36 33.976V6.328H36.384V33.912C36.384 37.7093 35.552 40.9307 33.888 43.576C32.2667 46.1787 30.0693 48.1413 27.296 49.464C24.5653 50.7867 21.5147 51.448 18.144 51.448C14.816 51.448 11.7867 50.7867 9.056 49.464C6.368 48.1413 4.23467 46.1787 2.656 43.576C1.07733 40.9307 0.288 37.7093 0.288 33.912V6.328H9.248ZM54.001 20.664C55.153 19.0427 56.7317 17.6987 58.737 16.632C60.785 15.5227 63.1103 14.968 65.713 14.968C68.7423 14.968 71.473 15.7147 73.905 17.208C76.3797 18.7013 78.321 20.8347 79.729 23.608C81.1797 26.3387 81.905 29.5173 81.905 33.144C81.905 36.7707 81.1797 39.992 79.729 42.808C78.321 45.5813 76.3797 47.736 73.905 49.272C71.473 50.808 68.7423 51.576 65.713 51.576C63.1103 51.576 60.8063 51.0427 58.801 49.976C56.8383 48.9093 55.2383 47.5653 54.001 45.944V67.896H45.041V15.544H54.001V20.664ZM72.753 33.144C72.753 31.0107 72.305 29.176 71.409 27.64C70.5557 26.0613 69.4037 24.8667 67.953 24.056C66.545 23.2453 65.009 22.84 63.345 22.84C61.7237 22.84 60.1877 23.2667 58.737 24.12C57.329 24.9307 56.177 26.1253 55.281 27.704C54.4277 29.2827 54.001 31.1387 54.001 33.272C54.001 35.4053 54.4277 37.2613 55.281 38.84C56.177 40.4187 57.329 41.6347 58.737 42.488C60.1877 43.2987 61.7237 43.704 63.345 43.704C65.009 43.704 66.545 43.2773 67.953 42.424C69.4037 41.5707 70.5557 40.3547 71.409 38.776C72.305 37.1973 72.753 35.32 72.753 33.144ZM86.112 33.272C86.112 29.6027 86.8587 26.4027 88.352 23.672C89.8453 20.8987 91.9147 18.7653 94.56 17.272C97.2053 15.736 100.235 14.968 103.648 14.968C108.043 14.968 111.669 16.0773 114.528 18.296C117.429 20.472 119.371 23.544 120.352 27.512H110.688C110.176 25.976 109.301 24.7813 108.064 23.928C106.869 23.032 105.376 22.584 103.584 22.584C101.024 22.584 98.9973 23.5227 97.504 25.4C96.0107 27.2347 95.264 29.8587 95.264 33.272C95.264 36.6427 96.0107 39.2667 97.504 41.144C98.9973 42.9787 101.024 43.896 103.584 43.896C107.211 43.896 109.579 42.2747 110.688 39.032H120.352C119.371 42.872 117.429 45.9227 114.528 48.184C111.627 50.4453 108 51.576 103.648 51.576C100.235 51.576 97.2053 50.8293 94.56 49.336C91.9147 47.8 89.8453 45.6667 88.352 42.936C86.8587 40.1627 86.112 36.9413 86.112 33.272ZM142.66 51.576C139.247 51.576 136.175 50.8293 133.444 49.336C130.713 47.8 128.559 45.6453 126.98 42.872C125.444 40.0987 124.676 36.8987 124.676 33.272C124.676 29.6453 125.465 26.4453 127.044 23.672C128.665 20.8987 130.863 18.7653 133.636 17.272C136.409 15.736 139.503 14.968 142.916 14.968C146.329 14.968 149.423 15.736 152.196 17.272C154.969 18.7653 157.145 20.8987 158.724 23.672C160.345 26.4453 161.156 29.6453 161.156 33.272C161.156 36.8987 160.324 40.0987 158.66 42.872C157.039 45.6453 154.82 47.8 152.004 49.336C149.231 50.8293 146.116 51.576 142.66 51.576ZM142.66 43.768C144.281 43.768 145.796 43.384 147.204 42.616C148.655 41.8053 149.807 40.6107 150.66 39.032C151.513 37.4533 151.94 35.5333 151.94 33.272C151.94 29.9013 151.044 27.32 149.252 25.528C147.503 23.6933 145.348 22.776 142.788 22.776C140.228 22.776 138.073 23.6933 136.324 25.528C134.617 27.32 133.764 29.9013 133.764 33.272C133.764 36.6427 134.596 39.2453 136.26 41.08C137.967 42.872 140.1 43.768 142.66 43.768ZM211.761 15.032C216.113 15.032 219.611 16.376 222.257 19.064C224.945 21.7093 226.289 25.4213 226.289 30.2V51H217.329V31.416C217.329 28.6427 216.625 26.5307 215.217 25.08C213.809 23.5867 211.889 22.84 209.457 22.84C207.025 22.84 205.083 23.5867 203.633 25.08C202.225 26.5307 201.521 28.6427 201.521 31.416V51H192.561V31.416C192.561 28.6427 191.857 26.5307 190.449 25.08C189.041 23.5867 187.121 22.84 184.689 22.84C182.214 22.84 180.251 23.5867 178.801 25.08C177.393 26.5307 176.689 28.6427 176.689 31.416V51H167.729V15.544H176.689V19.832C177.841 18.3387 179.313 17.1653 181.105 16.312C182.939 15.4587 184.945 15.032 187.121 15.032C189.894 15.032 192.369 15.6293 194.545 16.824C196.721 17.976 198.406 19.64 199.601 21.816C200.753 19.768 202.417 18.1253 204.593 16.888C206.811 15.6507 209.201 15.032 211.761 15.032ZM239.335 11.32C237.756 11.32 236.434 10.8293 235.367 9.848C234.343 8.824 233.831 7.56533 233.831 6.072C233.831 4.57866 234.343 3.34133 235.367 2.36C236.434 1.336 237.756 0.823997 239.335 0.823997C240.914 0.823997 242.215 1.336 243.239 2.36C244.306 3.34133 244.839 4.57866 244.839 6.072C244.839 7.56533 244.306 8.824 243.239 9.848C242.215 10.8293 240.914 11.32 239.335 11.32ZM243.751 15.544V51H234.791V15.544H243.751ZM272.252 15.032C276.476 15.032 279.889 16.376 282.492 19.064C285.094 21.7093 286.396 25.4213 286.396 30.2V51H277.436V31.416C277.436 28.6 276.732 26.4453 275.324 24.952C273.916 23.416 271.996 22.648 269.564 22.648C267.089 22.648 265.126 23.416 263.676 24.952C262.268 26.4453 261.564 28.6 261.564 31.416V51H252.604V15.544H261.564V19.96C262.758 18.424 264.273 17.2293 266.108 16.376C267.985 15.48 270.033 15.032 272.252 15.032ZM308.804 14.968C311.449 14.968 313.775 15.5013 315.78 16.568C317.785 17.592 319.364 18.936 320.516 20.6V15.544H329.54V51.256C329.54 54.5413 328.879 57.464 327.556 60.024C326.233 62.6267 324.249 64.6747 321.604 66.168C318.959 67.704 315.759 68.472 312.004 68.472C306.969 68.472 302.831 67.2987 299.588 64.952C296.388 62.6053 294.575 59.4053 294.148 55.352H303.044C303.513 56.9733 304.516 58.2533 306.052 59.192C307.631 60.1733 309.529 60.664 311.748 60.664C314.351 60.664 316.463 59.8747 318.084 58.296C319.705 56.76 320.516 54.4133 320.516 51.256V45.752C319.364 47.416 317.764 48.8027 315.716 49.912C313.711 51.0213 311.407 51.576 308.804 51.576C305.817 51.576 303.087 50.808 300.612 49.272C298.137 47.736 296.175 45.5813 294.724 42.808C293.316 39.992 292.612 36.7707 292.612 33.144C292.612 29.56 293.316 26.3813 294.724 23.608C296.175 20.8347 298.116 18.7013 300.548 17.208C303.023 15.7147 305.775 14.968 308.804 14.968ZM320.516 33.272C320.516 31.096 320.089 29.24 319.236 27.704C318.383 26.1253 317.231 24.9307 315.78 24.12C314.329 23.2667 312.772 22.84 311.108 22.84C309.444 22.84 307.908 23.2453 306.5 24.056C305.092 24.8667 303.94 26.0613 303.044 27.64C302.191 29.176 301.764 31.0107 301.764 33.144C301.764 35.2773 302.191 37.1547 303.044 38.776C303.94 40.3547 305.092 41.5707 306.5 42.424C307.951 43.2773 309.487 43.704 311.108 43.704C312.772 43.704 314.329 43.2987 315.78 42.488C317.231 41.6347 318.383 40.44 319.236 38.904C320.089 37.3253 320.516 35.448 320.516 33.272ZM644.965 51.448C640.783 51.448 636.943 50.4667 633.445 48.504C629.946 46.5413 627.173 43.832 625.125 40.376C623.077 36.8773 622.053 32.9307 622.053 28.536C622.053 24.184 623.077 20.28 625.125 16.824C627.173 13.3253 629.946 10.5947 633.445 8.632C636.943 6.66933 640.783 5.688 644.965 5.688C649.189 5.688 653.029 6.66933 656.485 8.632C659.983 10.5947 662.735 13.3253 664.741 16.824C666.789 20.28 667.813 24.184 667.813 28.536C667.813 32.9307 666.789 36.8773 664.741 40.376C662.735 43.832 659.983 46.5413 656.485 48.504C652.986 50.4667 649.146 51.448 644.965 51.448ZM644.965 43.448C647.653 43.448 650.021 42.8507 652.069 41.656C654.117 40.4187 655.717 38.6693 656.869 36.408C658.021 34.1467 658.597 31.5227 658.597 28.536C658.597 25.5493 658.021 22.9467 656.869 20.728C655.717 18.4667 654.117 16.7387 652.069 15.544C650.021 14.3493 647.653 13.752 644.965 13.752C642.277 13.752 639.887 14.3493 637.797 15.544C635.749 16.7387 634.149 18.4667 632.997 20.728C631.845 22.9467 631.269 25.5493 631.269 28.536C631.269 31.5227 631.845 34.1467 632.997 36.408C634.149 38.6693 635.749 40.4187 637.797 41.656C639.887 42.8507 642.277 43.448 644.965 43.448ZM690.735 22.904H684.527V51H675.439V22.904H671.407V15.544H675.439V13.752C675.439 9.4 676.676 6.2 679.151 4.152C681.625 2.104 685.359 1.144 690.351 1.272V8.824C688.175 8.78133 686.66 9.144 685.807 9.912C684.953 10.68 684.527 12.0667 684.527 14.072V15.544H690.735V22.904ZM712.797 22.904H706.589V51H697.501V22.904H693.469V15.544H697.501V13.752C697.501 9.4 698.738 6.2 701.213 4.152C703.688 2.104 707.421 1.144 712.413 1.272V8.824C710.237 8.78133 708.722 9.144 707.869 9.912C707.016 10.68 706.589 12.0667 706.589 14.072V15.544H712.797V22.904ZM751.564 32.504C751.564 33.784 751.478 34.936 751.308 35.96H725.388C725.601 38.52 726.497 40.5253 728.076 41.976C729.654 43.4267 731.596 44.152 733.9 44.152C737.228 44.152 739.596 42.7227 741.004 39.864H750.668C749.644 43.2773 747.681 46.0933 744.78 48.312C741.878 50.488 738.316 51.576 734.092 51.576C730.678 51.576 727.606 50.8293 724.876 49.336C722.188 47.8 720.076 45.6453 718.54 42.872C717.046 40.0987 716.299 36.8987 716.299 33.272C716.299 29.6027 717.046 26.3813 718.54 23.608C720.033 20.8347 722.124 18.7013 724.812 17.208C727.5 15.7147 730.593 14.968 734.092 14.968C737.462 14.968 740.47 15.6933 743.116 17.144C745.804 18.5947 747.873 20.664 749.324 23.352C750.817 25.9973 751.564 29.048 751.564 32.504ZM742.284 29.944C742.241 27.64 741.409 25.8053 739.788 24.44C738.166 23.032 736.182 22.328 733.836 22.328C731.617 22.328 729.74 23.0107 728.204 24.376C726.71 25.6987 725.793 27.5547 725.452 29.944H742.284ZM767.064 21.048C768.216 19.1707 769.709 17.6987 771.544 16.632C773.421 15.5653 775.554 15.032 777.944 15.032V24.44H775.576C772.76 24.44 770.626 25.1013 769.176 26.424C767.768 27.7467 767.064 30.0507 767.064 33.336V51H758.104V15.544H767.064V21.048ZM797.547 51.576C794.645 51.576 792.043 51.064 789.739 50.04C787.435 48.9733 785.6 47.544 784.235 45.752C782.912 43.96 782.187 41.976 782.059 39.8H791.083C791.253 41.1653 791.915 42.296 793.067 43.192C794.261 44.088 795.733 44.536 797.483 44.536C799.189 44.536 800.512 44.1947 801.451 43.512C802.432 42.8293 802.923 41.9547 802.923 40.888C802.923 39.736 802.325 38.8827 801.131 38.328C799.979 37.7307 798.123 37.0907 795.562 36.408C792.917 35.768 790.741 35.1067 789.035 34.424C787.371 33.7413 785.92 32.696 784.683 31.288C783.488 29.88 782.891 27.9813 782.891 25.592C782.891 23.6293 783.445 21.8373 784.555 20.216C785.707 18.5947 787.328 17.3147 789.419 16.376C791.552 15.4373 794.048 14.968 796.907 14.968C801.131 14.968 804.501 16.0347 807.019 18.168C809.536 20.2587 810.923 23.096 811.179 26.68H802.603C802.475 25.272 801.877 24.1627 800.811 23.352C799.787 22.4987 798.4 22.072 796.651 22.072C795.029 22.072 793.771 22.3707 792.875 22.968C792.021 23.5653 791.595 24.3973 791.595 25.464C791.595 26.6587 792.192 27.576 793.387 28.216C794.581 28.8133 796.437 29.432 798.955 30.072C801.515 30.712 803.627 31.3733 805.291 32.056C806.955 32.7387 808.384 33.8053 809.579 35.256C810.816 36.664 811.456 38.5413 811.499 40.888C811.499 42.936 810.923 44.7707 809.771 46.392C808.661 48.0133 807.04 49.2933 804.907 50.232C802.816 51.128 800.363 51.576 797.547 51.576Z" fill="white"/>
<path d="M381.125 6.328V13.56H362.501V25.016H376.773V32.12H362.501V51H353.541V6.328H381.125ZM385.174 33.144C385.174 29.56 385.878 26.3813 387.286 23.608C388.737 20.8347 390.679 18.7013 393.111 17.208C395.585 15.7147 398.337 14.968 401.367 14.968C404.012 14.968 406.316 15.5013 408.279 16.568C410.284 17.6347 411.884 18.9787 413.079 20.6V15.544H422.103V51H413.079V45.816C411.927 47.48 410.327 48.8667 408.279 49.976C406.273 51.0427 403.948 51.576 401.303 51.576C398.316 51.576 395.585 50.808 393.111 49.272C390.679 47.736 388.737 45.5813 387.286 42.808C385.878 39.992 385.174 36.7707 385.174 33.144ZM413.079 33.272C413.079 31.096 412.652 29.24 411.799 27.704C410.945 26.1253 409.793 24.9307 408.343 24.12C406.892 23.2667 405.335 22.84 403.671 22.84C402.007 22.84 400.471 23.2453 399.062 24.056C397.655 24.8667 396.503 26.0613 395.607 27.64C394.753 29.176 394.327 31.0107 394.327 33.144C394.327 35.2773 394.753 37.1547 395.607 38.776C396.503 40.3547 397.655 41.5707 399.062 42.424C400.513 43.2773 402.049 43.704 403.671 43.704C405.335 43.704 406.892 43.2987 408.343 42.488C409.793 41.6347 410.945 40.44 411.799 38.904C412.652 37.3253 413.079 35.448 413.079 33.272ZM444.422 51.576C441.52 51.576 438.918 51.064 436.614 50.04C434.31 48.9733 432.475 47.544 431.11 45.752C429.787 43.96 429.062 41.976 428.934 39.8H437.958C438.128 41.1653 438.79 42.296 439.942 43.192C441.136 44.088 442.608 44.536 444.358 44.536C446.064 44.536 447.387 44.1947 448.326 43.512C449.307 42.8293 449.798 41.9547 449.798 40.888C449.798 39.736 449.2 38.8827 448.006 38.328C446.854 37.7307 444.998 37.0907 442.438 36.408C439.792 35.768 437.616 35.1067 435.91 34.424C434.246 33.7413 432.795 32.696 431.558 31.288C430.363 29.88 429.766 27.9813 429.766 25.592C429.766 23.6293 430.32 21.8373 431.43 20.216C432.582 18.5947 434.203 17.3147 436.294 16.376C438.427 15.4373 440.923 14.968 443.782 14.968C448.006 14.968 451.376 16.0347 453.894 18.168C456.411 20.2587 457.798 23.096 458.054 26.68H449.478C449.35 25.272 448.752 24.1627 447.686 23.352C446.662 22.4987 445.275 22.072 443.526 22.072C441.904 22.072 440.646 22.3707 439.75 22.968C438.896 23.5653 438.47 24.3973 438.47 25.464C438.47 26.6587 439.067 27.576 440.262 28.216C441.456 28.8133 443.312 29.432 445.83 30.072C448.39 30.712 450.502 31.3733 452.166 32.056C453.83 32.7387 455.259 33.8053 456.454 35.256C457.691 36.664 458.331 38.5413 458.374 40.888C458.374 42.936 457.798 44.7707 456.646 46.392C455.536 48.0133 453.915 49.2933 451.782 50.232C449.691 51.128 447.238 51.576 444.422 51.576ZM485.697 15.032C488.385 15.032 490.774 15.6293 492.865 16.824C494.955 17.976 496.577 19.704 497.729 22.008C498.923 24.2693 499.521 27 499.521 30.2V51H490.561V31.416C490.561 28.6 489.857 26.4453 488.449 24.952C487.041 23.416 485.121 22.648 482.689 22.648C480.214 22.648 478.251 23.416 476.801 24.952C475.393 26.4453 474.689 28.6 474.689 31.416V51H465.729V3.64H474.689V19.96C475.841 18.424 477.377 17.2293 479.297 16.376C481.217 15.48 483.35 15.032 485.697 15.032ZM512.585 11.32C511.006 11.32 509.684 10.8293 508.617 9.848C507.593 8.824 507.081 7.56533 507.081 6.072C507.081 4.57866 507.593 3.34133 508.617 2.36C509.684 1.336 511.006 0.823997 512.585 0.823997C514.164 0.823997 515.465 1.336 516.489 2.36C517.556 3.34133 518.089 4.57866 518.089 6.072C518.089 7.56533 517.556 8.824 516.489 9.848C515.465 10.8293 514.164 11.32 512.585 11.32ZM517.001 15.544V51H508.041V15.544H517.001ZM541.598 51.576C538.184 51.576 535.112 50.8293 532.382 49.336C529.651 47.8 527.496 45.6453 525.918 42.872C524.382 40.0987 523.614 36.8987 523.614 33.272C523.614 29.6453 524.403 26.4453 525.982 23.672C527.603 20.8987 529.8 18.7653 532.574 17.272C535.347 15.736 538.44 14.968 541.854 14.968C545.267 14.968 548.36 15.736 551.134 17.272C553.907 18.7653 556.083 20.8987 557.662 23.672C559.283 26.4453 560.094 29.6453 560.094 33.272C560.094 36.8987 559.262 40.0987 557.597 42.872C555.976 45.6453 553.758 47.8 550.942 49.336C548.168 50.8293 545.054 51.576 541.598 51.576ZM541.598 43.768C543.219 43.768 544.734 43.384 546.142 42.616C547.592 41.8053 548.744 40.6107 549.598 39.032C550.451 37.4533 550.878 35.5333 550.878 33.272C550.878 29.9013 549.982 27.32 548.19 25.528C546.44 23.6933 544.286 22.776 541.726 22.776C539.166 22.776 537.011 23.6933 535.262 25.528C533.555 27.32 532.702 29.9013 532.702 33.272C532.702 36.6427 533.534 39.2453 535.198 41.08C536.904 42.872 539.038 43.768 541.598 43.768ZM586.314 15.032C590.538 15.032 593.951 16.376 596.554 19.064C599.157 21.7093 600.458 25.4213 600.458 30.2V51H591.498V31.416C591.498 28.6 590.794 26.4453 589.386 24.952C587.978 23.416 586.058 22.648 583.626 22.648C581.151 22.648 579.189 23.416 577.738 24.952C576.33 26.4453 575.626 28.6 575.626 31.416V51H566.666V15.544H575.626V19.96C576.821 18.424 578.335 17.2293 580.17 16.376C582.047 15.48 584.095 15.032 586.314 15.032Z" fill="#DF3E39"/>
</svg>
