<svg width="878" height="252" viewBox="0 0 878 252" fill="none" xmlns="http://www.w3.org/2000/svg">
<path d="M63.128 6.328L50.648 51H40.088L31.704 19.192L22.936 51L12.44 51.064L0.408 6.328H10.008L17.88 41.016L26.968 6.328H36.952L45.528 40.824L53.464 6.328H63.128ZM101.939 32.504C101.939 33.784 101.853 34.936 101.683 35.96H75.7625C75.9758 38.52 76.8718 40.5253 78.4505 41.976C80.0292 43.4267 81.9705 44.152 84.2745 44.152C87.6025 44.152 89.9705 42.7227 91.3785 39.864H101.043C100.019 43.2773 98.0558 46.0933 95.1545 48.312C92.2532 50.488 88.6905 51.576 84.4665 51.576C81.0532 51.576 77.9812 50.8293 75.2505 49.336C72.5625 47.8 70.4505 45.6453 68.9145 42.872C67.4212 40.0987 66.6745 36.8987 66.6745 33.272C66.6745 29.6027 67.4212 26.3813 68.9145 23.608C70.4078 20.8347 72.4985 18.7013 75.1865 17.208C77.8745 15.7147 80.9678 14.968 84.4665 14.968C87.8372 14.968 90.8452 15.6933 93.4905 17.144C96.1785 18.5947 98.2478 20.664 99.6985 23.352C101.192 25.9973 101.939 29.048 101.939 32.504ZM92.6585 29.944C92.6158 27.64 91.7838 25.8053 90.1625 24.44C88.5412 23.032 86.5572 22.328 84.2105 22.328C81.9918 22.328 80.1145 23.0107 78.5785 24.376C77.0852 25.6987 76.1678 27.5547 75.8265 29.944H92.6585ZM172.881 15.544L162.513 51H152.849L146.385 26.232L139.921 51H130.193L119.761 15.544H128.849L135.121 42.552L141.905 15.544H151.377L158.033 42.488L164.305 15.544H172.881ZM182.273 11.32C180.694 11.32 179.371 10.8293 178.305 9.848C177.281 8.824 176.769 7.56533 176.769 6.072C176.769 4.57866 177.281 3.34133 178.305 2.36C179.371 1.336 180.694 0.823997 182.273 0.823997C183.851 0.823997 185.153 1.336 186.177 2.36C187.243 3.34133 187.777 4.57866 187.777 6.072C187.777 7.56533 187.243 8.824 186.177 9.848C185.153 10.8293 183.851 11.32 182.273 11.32ZM186.689 15.544V51H177.729V15.544H186.689ZM204.501 3.64V51H195.541V3.64H204.501ZM222.314 3.64V51H213.354V3.64H222.314ZM244.112 33.272C244.112 29.6027 244.859 26.4027 246.352 23.672C247.845 20.8987 249.915 18.7653 252.56 17.272C255.205 15.736 258.235 14.968 261.648 14.968C266.043 14.968 269.669 16.0773 272.528 18.296C275.429 20.472 277.371 23.544 278.352 27.512H268.688C268.176 25.976 267.301 24.7813 266.064 23.928C264.869 23.032 263.376 22.584 261.584 22.584C259.024 22.584 256.997 23.5227 255.504 25.4C254.011 27.2347 253.264 29.8587 253.264 33.272C253.264 36.6427 254.011 39.2667 255.504 41.144C256.997 42.9787 259.024 43.896 261.584 43.896C265.211 43.896 267.579 42.2747 268.688 39.032H278.352C277.371 42.872 275.429 45.9227 272.528 48.184C269.627 50.4453 266 51.576 261.648 51.576C258.235 51.576 255.205 50.8293 252.56 49.336C249.915 47.8 247.845 45.6667 246.352 42.936C244.859 40.1627 244.112 36.9413 244.112 33.272ZM300.66 51.576C297.247 51.576 294.175 50.8293 291.444 49.336C288.713 47.8 286.559 45.6453 284.98 42.872C283.444 40.0987 282.676 36.8987 282.676 33.272C282.676 29.6453 283.465 26.4453 285.044 23.672C286.665 20.8987 288.863 18.7653 291.636 17.272C294.409 15.736 297.503 14.968 300.916 14.968C304.329 14.968 307.423 15.736 310.196 17.272C312.969 18.7653 315.145 20.8987 316.724 23.672C318.345 26.4453 319.156 29.6453 319.156 33.272C319.156 36.8987 318.324 40.0987 316.66 42.872C315.039 45.6453 312.82 47.8 310.004 49.336C307.231 50.8293 304.116 51.576 300.66 51.576ZM300.66 43.768C302.281 43.768 303.796 43.384 305.204 42.616C306.655 41.8053 307.807 40.6107 308.66 39.032C309.513 37.4533 309.94 35.5333 309.94 33.272C309.94 29.9013 309.044 27.32 307.252 25.528C305.503 23.6933 303.348 22.776 300.788 22.776C298.228 22.776 296.073 23.6933 294.324 25.528C292.617 27.32 291.764 29.9013 291.764 33.272C291.764 36.6427 292.596 39.2453 294.26 41.08C295.967 42.872 298.1 43.768 300.66 43.768ZM369.761 15.032C374.113 15.032 377.611 16.376 380.257 19.064C382.945 21.7093 384.289 25.4213 384.289 30.2V51H375.329V31.416C375.329 28.6427 374.625 26.5307 373.217 25.08C371.809 23.5867 369.889 22.84 367.457 22.84C365.025 22.84 363.083 23.5867 361.633 25.08C360.225 26.5307 359.521 28.6427 359.521 31.416V51H350.561V31.416C350.561 28.6427 349.857 26.5307 348.449 25.08C347.041 23.5867 345.121 22.84 342.689 22.84C340.214 22.84 338.251 23.5867 336.801 25.08C335.393 26.5307 334.689 28.6427 334.689 31.416V51H325.729V15.544H334.689V19.832C335.841 18.3387 337.313 17.1653 339.105 16.312C340.939 15.4587 342.945 15.032 345.121 15.032C347.894 15.032 350.369 15.6293 352.545 16.824C354.721 17.976 356.406 19.64 357.601 21.816C358.753 19.768 360.417 18.1253 362.593 16.888C364.811 15.6507 367.201 15.032 369.761 15.032ZM397.335 11.32C395.756 11.32 394.434 10.8293 393.367 9.848C392.343 8.824 391.831 7.56533 391.831 6.072C391.831 4.57866 392.343 3.34133 393.367 2.36C394.434 1.336 395.756 0.823997 397.335 0.823997C398.914 0.823997 400.215 1.336 401.239 2.36C402.306 3.34133 402.839 4.57866 402.839 6.072C402.839 7.56533 402.306 8.824 401.239 9.848C400.215 10.8293 398.914 11.32 397.335 11.32ZM401.751 15.544V51H392.791V15.544H401.751ZM430.252 15.032C434.476 15.032 437.889 16.376 440.492 19.064C443.094 21.7093 444.396 25.4213 444.396 30.2V51H435.436V31.416C435.436 28.6 434.732 26.4453 433.324 24.952C431.916 23.416 429.996 22.648 427.564 22.648C425.089 22.648 423.126 23.416 421.676 24.952C420.268 26.4453 419.564 28.6 419.564 31.416V51H410.604V15.544H419.564V19.96C420.758 18.424 422.273 17.2293 424.108 16.376C425.985 15.48 428.033 15.032 430.252 15.032ZM466.804 14.968C469.449 14.968 471.775 15.5013 473.78 16.568C475.785 17.592 477.364 18.936 478.516 20.6V15.544H487.54V51.256C487.54 54.5413 486.879 57.464 485.556 60.024C484.233 62.6267 482.249 64.6747 479.604 66.168C476.959 67.704 473.759 68.472 470.004 68.472C464.969 68.472 460.831 67.2987 457.588 64.952C454.388 62.6053 452.575 59.4053 452.148 55.352H461.044C461.513 56.9733 462.516 58.2533 464.052 59.192C465.631 60.1733 467.529 60.664 469.748 60.664C472.351 60.664 474.463 59.8747 476.084 58.296C477.705 56.76 478.516 54.4133 478.516 51.256V45.752C477.364 47.416 475.764 48.8027 473.716 49.912C471.711 51.0213 469.407 51.576 466.804 51.576C463.817 51.576 461.087 50.808 458.612 49.272C456.137 47.736 454.175 45.5813 452.724 42.808C451.316 39.992 450.612 36.7707 450.612 33.144C450.612 29.56 451.316 26.3813 452.724 23.608C454.175 20.8347 456.116 18.7013 458.548 17.208C461.023 15.7147 463.775 14.968 466.804 14.968ZM478.516 33.272C478.516 31.096 478.089 29.24 477.236 27.704C476.383 26.1253 475.231 24.9307 473.78 24.12C472.329 23.2667 470.772 22.84 469.108 22.84C467.444 22.84 465.908 23.2453 464.5 24.056C463.092 24.8667 461.94 26.0613 461.044 27.64C460.191 29.176 459.764 31.0107 459.764 33.144C459.764 35.2773 460.191 37.1547 461.044 38.776C461.94 40.3547 463.092 41.5707 464.5 42.424C465.951 43.2773 467.487 43.704 469.108 43.704C470.772 43.704 472.329 43.2987 473.78 42.488C475.231 41.6347 476.383 40.44 477.236 38.904C478.089 37.3253 478.516 35.448 478.516 33.272ZM545.013 15.544V51H535.989V46.52C534.837 48.056 533.322 49.272 531.445 50.168C529.61 51.0213 527.605 51.448 525.429 51.448C522.656 51.448 520.202 50.872 518.069 49.72C515.936 48.5253 514.25 46.7973 513.013 44.536C511.818 42.232 511.221 39.5013 511.221 36.344V15.544H520.181V35.064C520.181 37.88 520.885 40.056 522.293 41.592C523.701 43.0853 525.621 43.832 528.053 43.832C530.528 43.832 532.469 43.0853 533.877 41.592C535.285 40.056 535.989 37.88 535.989 35.064V15.544H545.013ZM562.814 20.664C563.966 19.0427 565.544 17.6987 567.55 16.632C569.598 15.5227 571.923 14.968 574.526 14.968C577.555 14.968 580.286 15.7147 582.718 17.208C585.192 18.7013 587.134 20.8347 588.542 23.608C589.992 26.3387 590.718 29.5173 590.718 33.144C590.718 36.7707 589.992 39.992 588.542 42.808C587.134 45.5813 585.192 47.736 582.718 49.272C580.286 50.808 577.555 51.576 574.526 51.576C571.923 51.576 569.619 51.0427 567.614 49.976C565.651 48.9093 564.051 47.5653 562.814 45.944V67.896H553.854V15.544H562.814V20.664ZM581.566 33.144C581.566 31.0107 581.118 29.176 580.222 27.64C579.368 26.0613 578.216 24.8667 576.766 24.056C575.358 23.2453 573.822 22.84 572.158 22.84C570.536 22.84 569 23.2667 567.55 24.12C566.142 24.9307 564.99 26.1253 564.094 27.704C563.24 29.2827 562.814 31.1387 562.814 33.272C562.814 35.4053 563.24 37.2613 564.094 38.84C564.99 40.4187 566.142 41.6347 567.55 42.488C569 43.2987 570.536 43.704 572.158 43.704C573.822 43.704 575.358 43.2773 576.766 42.424C578.216 41.5707 579.368 40.3547 580.222 38.776C581.118 37.1973 581.566 35.32 581.566 33.144ZM661.631 15.544L651.263 51H641.599L635.135 26.232L628.671 51H618.943L608.511 15.544H617.599L623.871 42.552L630.655 15.544H640.127L646.783 42.488L653.055 15.544H661.631ZM671.023 11.32C669.444 11.32 668.121 10.8293 667.055 9.848C666.031 8.824 665.519 7.56533 665.519 6.072C665.519 4.57866 666.031 3.34133 667.055 2.36C668.121 1.336 669.444 0.823997 671.023 0.823997C672.601 0.823997 673.903 1.336 674.927 2.36C675.993 3.34133 676.527 4.57866 676.527 6.072C676.527 7.56533 675.993 8.824 674.927 9.848C673.903 10.8293 672.601 11.32 671.023 11.32ZM675.439 15.544V51H666.479V15.544H675.439ZM694.723 22.904V40.056C694.723 41.2507 695 42.1253 695.555 42.68C696.152 43.192 697.134 43.448 698.499 43.448H702.659V51H697.027C689.475 51 685.699 47.3307 685.699 39.992V22.904H681.475V15.544H685.699V6.776H694.723V15.544H702.659V22.904H694.723ZM729.072 15.032C731.76 15.032 734.149 15.6293 736.24 16.824C738.33 17.976 739.952 19.704 741.104 22.008C742.298 24.2693 742.896 27 742.896 30.2V51H733.936V31.416C733.936 28.6 733.232 26.4453 731.824 24.952C730.416 23.416 728.496 22.648 726.064 22.648C723.589 22.648 721.626 23.416 720.176 24.952C718.768 26.4453 718.064 28.6 718.064 31.416V51H709.104V3.64H718.064V19.96C719.216 18.424 720.752 17.2293 722.672 16.376C724.592 15.48 726.725 15.032 729.072 15.032ZM775.626 3.64V51H766.666V3.64H775.626ZM800.223 51.576C796.809 51.576 793.737 50.8293 791.007 49.336C788.276 47.8 786.121 45.6453 784.543 42.872C783.007 40.0987 782.239 36.8987 782.239 33.272C782.239 29.6453 783.028 26.4453 784.607 23.672C786.228 20.8987 788.425 18.7653 791.199 17.272C793.972 15.736 797.065 14.968 800.479 14.968C803.892 14.968 806.985 15.736 809.759 17.272C812.532 18.7653 814.708 20.8987 816.287 23.672C817.908 26.4453 818.719 29.6453 818.719 33.272C818.719 36.8987 817.887 40.0987 816.222 42.872C814.601 45.6453 812.383 47.8 809.567 49.336C806.793 50.8293 803.679 51.576 800.223 51.576ZM800.223 43.768C801.844 43.768 803.359 43.384 804.767 42.616C806.217 41.8053 807.369 40.6107 808.223 39.032C809.076 37.4533 809.503 35.5333 809.503 33.272C809.503 29.9013 808.607 27.32 806.815 25.528C805.065 23.6933 802.911 22.776 800.351 22.776C797.791 22.776 795.636 23.6933 793.887 25.528C792.18 27.32 791.327 29.9013 791.327 33.272C791.327 36.6427 792.159 39.2453 793.823 41.08C795.529 42.872 797.663 43.768 800.223 43.768ZM835.723 22.904V40.056C835.723 41.2507 836 42.1253 836.555 42.68C837.152 43.192 838.134 43.448 839.499 43.448H843.659V51H838.027C830.475 51 826.699 47.3307 826.699 39.992V22.904H822.475V15.544H826.699V6.776H835.723V15.544H843.659V22.904H835.723ZM863.672 51.576C860.77 51.576 858.168 51.064 855.864 50.04C853.56 48.9733 851.725 47.544 850.36 45.752C849.037 43.96 848.312 41.976 848.184 39.8H857.208C857.378 41.1653 858.04 42.296 859.192 43.192C860.386 44.088 861.858 44.536 863.608 44.536C865.314 44.536 866.637 44.1947 867.576 43.512C868.557 42.8293 869.048 41.9547 869.048 40.888C869.048 39.736 868.45 38.8827 867.256 38.328C866.104 37.7307 864.248 37.0907 861.688 36.408C859.042 35.768 856.866 35.1067 855.16 34.424C853.496 33.7413 852.045 32.696 850.808 31.288C849.613 29.88 849.016 27.9813 849.016 25.592C849.016 23.6293 849.57 21.8373 850.68 20.216C851.832 18.5947 853.453 17.3147 855.544 16.376C857.677 15.4373 860.173 14.968 863.032 14.968C867.256 14.968 870.626 16.0347 873.144 18.168C875.661 20.2587 877.048 23.096 877.304 26.68H868.728C868.6 25.272 868.002 24.1627 866.936 23.352C865.912 22.4987 864.525 22.072 862.776 22.072C861.154 22.072 859.896 22.3707 859 22.968C858.146 23.5653 857.72 24.3973 857.72 25.464C857.72 26.6587 858.317 27.576 859.512 28.216C860.706 28.8133 862.562 29.432 865.08 30.072C867.64 30.712 869.752 31.3733 871.416 32.056C873.08 32.7387 874.509 33.8053 875.704 35.256C876.941 36.664 877.581 38.5413 877.624 40.888C877.624 42.936 877.048 44.7707 875.896 46.392C874.786 48.0133 873.165 49.2933 871.032 50.232C868.941 51.128 866.488 51.576 863.672 51.576ZM19.16 147.576C15.7467 147.576 12.6747 146.829 9.944 145.336C7.21333 143.8 5.05867 141.645 3.48 138.872C1.944 136.099 1.176 132.899 1.176 129.272C1.176 125.645 1.96533 122.445 3.544 119.672C5.16533 116.899 7.36267 114.765 10.136 113.272C12.9093 111.736 16.0027 110.968 19.416 110.968C22.8293 110.968 25.9227 111.736 28.696 113.272C31.4693 114.765 33.6453 116.899 35.224 119.672C36.8453 122.445 37.656 125.645 37.656 129.272C37.656 132.899 36.824 136.099 35.16 138.872C33.5387 141.645 31.32 143.8 28.504 145.336C25.7307 146.829 22.616 147.576 19.16 147.576ZM19.16 139.768C20.7813 139.768 22.296 139.384 23.704 138.616C25.1547 137.805 26.3067 136.611 27.16 135.032C28.0133 133.453 28.44 131.533 28.44 129.272C28.44 125.901 27.544 123.32 25.752 121.528C24.0027 119.693 21.848 118.776 19.288 118.776C16.728 118.776 14.5733 119.693 12.824 121.528C11.1173 123.32 10.264 125.901 10.264 129.272C10.264 132.643 11.096 135.245 12.76 137.08C14.4667 138.872 16.6 139.768 19.16 139.768ZM60.4845 118.904H54.2765V147H45.1885V118.904H41.1565V111.544H45.1885V109.752C45.1885 105.4 46.4258 102.2 48.9005 100.152C51.3752 98.104 55.1085 97.144 60.1005 97.272V104.824C57.9245 104.781 56.4098 105.144 55.5565 105.912C54.7032 106.68 54.2765 108.067 54.2765 110.072V111.544H60.4845V118.904ZM97.285 147.576C93.8717 147.576 90.7997 146.829 88.069 145.336C85.3383 143.8 83.1837 141.645 81.605 138.872C80.069 136.099 79.301 132.899 79.301 129.272C79.301 125.645 80.0903 122.445 81.669 119.672C83.2903 116.899 85.4877 114.765 88.261 113.272C91.0343 111.736 94.1277 110.968 97.541 110.968C100.954 110.968 104.048 111.736 106.821 113.272C109.594 114.765 111.77 116.899 113.349 119.672C114.97 122.445 115.781 125.645 115.781 129.272C115.781 132.899 114.949 136.099 113.285 138.872C111.664 141.645 109.445 143.8 106.629 145.336C103.856 146.829 100.741 147.576 97.285 147.576ZM97.285 139.768C98.9063 139.768 100.421 139.384 101.829 138.616C103.28 137.805 104.432 136.611 105.285 135.032C106.138 133.453 106.565 131.533 106.565 129.272C106.565 125.901 105.669 123.32 103.877 121.528C102.128 119.693 99.973 118.776 97.413 118.776C94.853 118.776 92.6983 119.693 90.949 121.528C89.2423 123.32 88.389 125.901 88.389 129.272C88.389 132.643 89.221 135.245 90.885 137.08C92.5917 138.872 94.725 139.768 97.285 139.768ZM138.61 118.904H132.402V147H123.314V118.904H119.282V111.544H123.314V109.752C123.314 105.4 124.551 102.2 127.026 100.152C129.5 98.104 133.234 97.144 138.226 97.272V104.824C136.05 104.781 134.535 105.144 133.682 105.912C132.828 106.68 132.402 108.067 132.402 110.072V111.544H138.61V118.904ZM160.672 118.904H154.464V147H145.376V118.904H141.344V111.544H145.376V109.752C145.376 105.4 146.613 102.2 149.088 100.152C151.563 98.104 155.296 97.144 160.288 97.272V104.824C158.112 104.781 156.597 105.144 155.744 105.912C154.891 106.68 154.464 108.067 154.464 110.072V111.544H160.672V118.904ZM199.439 128.504C199.439 129.784 199.353 130.936 199.183 131.96H173.263C173.476 134.52 174.372 136.525 175.951 137.976C177.529 139.427 179.471 140.152 181.775 140.152C185.103 140.152 187.471 138.723 188.879 135.864H198.543C197.519 139.277 195.556 142.093 192.655 144.312C189.753 146.488 186.191 147.576 181.967 147.576C178.553 147.576 175.481 146.829 172.751 145.336C170.063 143.8 167.951 141.645 166.415 138.872C164.921 136.099 164.174 132.899 164.174 129.272C164.174 125.603 164.921 122.381 166.415 119.608C167.908 116.835 169.999 114.701 172.687 113.208C175.375 111.715 178.468 110.968 181.967 110.968C185.337 110.968 188.345 111.693 190.991 113.144C193.679 114.595 195.748 116.664 197.199 119.352C198.692 121.997 199.439 125.048 199.439 128.504ZM190.159 125.944C190.116 123.64 189.284 121.805 187.663 120.44C186.041 119.032 184.057 118.328 181.711 118.328C179.492 118.328 177.615 119.011 176.079 120.376C174.585 121.699 173.668 123.555 173.327 125.944H190.159ZM214.939 117.048C216.091 115.171 217.584 113.699 219.419 112.632C221.296 111.565 223.429 111.032 225.819 111.032V120.44H223.451C220.635 120.44 218.501 121.101 217.051 122.424C215.643 123.747 214.939 126.051 214.939 129.336V147H205.979V111.544H214.939V117.048ZM262.848 147.576C259.434 147.576 256.362 146.829 253.632 145.336C250.901 143.8 248.746 141.645 247.168 138.872C245.632 136.099 244.864 132.899 244.864 129.272C244.864 125.645 245.653 122.445 247.232 119.672C248.853 116.899 251.05 114.765 253.824 113.272C256.597 111.736 259.69 110.968 263.104 110.968C266.517 110.968 269.61 111.736 272.384 113.272C275.157 114.765 277.333 116.899 278.912 119.672C280.533 122.445 281.344 125.645 281.344 129.272C281.344 132.899 280.512 136.099 278.847 138.872C277.226 141.645 275.008 143.8 272.192 145.336C269.418 146.829 266.304 147.576 262.848 147.576ZM262.848 139.768C264.469 139.768 265.984 139.384 267.392 138.616C268.842 137.805 269.994 136.611 270.848 135.032C271.701 133.453 272.128 131.533 272.128 129.272C272.128 125.901 271.232 123.32 269.44 121.528C267.69 119.693 265.536 118.776 262.976 118.776C260.416 118.776 258.261 119.693 256.512 121.528C254.805 123.32 253.952 125.901 253.952 129.272C253.952 132.643 254.784 135.245 256.448 137.08C258.154 138.872 260.288 139.768 262.848 139.768ZM307.564 111.032C311.788 111.032 315.201 112.376 317.804 115.064C320.407 117.709 321.708 121.421 321.708 126.2V147H312.748V127.416C312.748 124.6 312.044 122.445 310.636 120.952C309.228 119.416 307.308 118.648 304.876 118.648C302.401 118.648 300.439 119.416 298.988 120.952C297.58 122.445 296.876 124.6 296.876 127.416V147H287.916V111.544H296.876V115.96C298.071 114.424 299.585 113.229 301.42 112.376C303.297 111.48 305.345 111.032 307.564 111.032ZM380.999 102.328L365.895 131.448V147H356.935V131.448L341.767 102.328H351.879L361.479 122.744L371.015 102.328H380.999ZM401.91 147.576C398.497 147.576 395.425 146.829 392.694 145.336C389.963 143.8 387.809 141.645 386.23 138.872C384.694 136.099 383.926 132.899 383.926 129.272C383.926 125.645 384.715 122.445 386.294 119.672C387.915 116.899 390.113 114.765 392.886 113.272C395.659 111.736 398.753 110.968 402.166 110.968C405.579 110.968 408.673 111.736 411.446 113.272C414.219 114.765 416.395 116.899 417.974 119.672C419.595 122.445 420.406 125.645 420.406 129.272C420.406 132.899 419.574 136.099 417.91 138.872C416.289 141.645 414.07 143.8 411.254 145.336C408.481 146.829 405.366 147.576 401.91 147.576ZM401.91 139.768C403.531 139.768 405.046 139.384 406.454 138.616C407.905 137.805 409.057 136.611 409.91 135.032C410.763 133.453 411.19 131.533 411.19 129.272C411.19 125.901 410.294 123.32 408.502 121.528C406.753 119.693 404.598 118.776 402.038 118.776C399.478 118.776 397.323 119.693 395.574 121.528C393.867 123.32 393.014 125.901 393.014 129.272C393.014 132.643 393.846 135.245 395.51 137.08C397.217 138.872 399.35 139.768 401.91 139.768ZM460.451 111.544V147H451.427V142.52C450.275 144.056 448.76 145.272 446.883 146.168C445.048 147.021 443.043 147.448 440.867 147.448C438.093 147.448 435.64 146.872 433.507 145.72C431.373 144.525 429.688 142.797 428.451 140.536C427.256 138.232 426.659 135.501 426.659 132.344V111.544H435.619V131.064C435.619 133.88 436.323 136.056 437.731 137.592C439.139 139.085 441.059 139.832 443.491 139.832C445.965 139.832 447.907 139.085 449.315 137.592C450.723 136.056 451.427 133.88 451.427 131.064V111.544H460.451ZM478.251 117.048C479.403 115.171 480.896 113.699 482.731 112.632C484.608 111.565 486.742 111.032 489.131 111.032V120.44H486.763C483.947 120.44 481.814 121.101 480.363 122.424C478.955 123.747 478.251 126.051 478.251 129.336V147H469.291V111.544H478.251V117.048ZM538 102.328V109.56H519.376V121.016H533.648V128.12H519.376V147H510.416V102.328H538ZM542.049 129.144C542.049 125.56 542.753 122.381 544.161 119.608C545.612 116.835 547.554 114.701 549.986 113.208C552.46 111.715 555.212 110.968 558.242 110.968C560.887 110.968 563.191 111.501 565.154 112.568C567.159 113.635 568.759 114.979 569.954 116.6V111.544H578.978V147H569.954V141.816C568.802 143.48 567.202 144.867 565.154 145.976C563.148 147.043 560.823 147.576 558.178 147.576C555.191 147.576 552.46 146.808 549.986 145.272C547.554 143.736 545.612 141.581 544.161 138.808C542.753 135.992 542.049 132.771 542.049 129.144ZM569.954 129.272C569.954 127.096 569.527 125.24 568.674 123.704C567.82 122.125 566.668 120.931 565.218 120.12C563.767 119.267 562.21 118.84 560.546 118.84C558.882 118.84 557.346 119.245 555.938 120.056C554.53 120.867 553.378 122.061 552.482 123.64C551.628 125.176 551.202 127.011 551.202 129.144C551.202 131.277 551.628 133.155 552.482 134.776C553.378 136.355 554.53 137.571 555.938 138.424C557.388 139.277 558.924 139.704 560.546 139.704C562.21 139.704 563.767 139.299 565.218 138.488C566.668 137.635 567.82 136.44 568.674 134.904C569.527 133.325 569.954 131.448 569.954 129.272ZM602.513 138.744L611.473 111.544H621.009L607.889 147H597.009L583.953 111.544H593.553L602.513 138.744ZM641.785 147.576C638.372 147.576 635.3 146.829 632.569 145.336C629.838 143.8 627.684 141.645 626.105 138.872C624.569 136.099 623.801 132.899 623.801 129.272C623.801 125.645 624.59 122.445 626.169 119.672C627.79 116.899 629.988 114.765 632.761 113.272C635.534 111.736 638.628 110.968 642.041 110.968C645.454 110.968 648.548 111.736 651.321 113.272C654.094 114.765 656.27 116.899 657.849 119.672C659.47 122.445 660.281 125.645 660.281 129.272C660.281 132.899 659.449 136.099 657.785 138.872C656.164 141.645 653.945 143.8 651.129 145.336C648.356 146.829 645.241 147.576 641.785 147.576ZM641.785 139.768C643.406 139.768 644.921 139.384 646.329 138.616C647.78 137.805 648.932 136.611 649.785 135.032C650.638 133.453 651.065 131.533 651.065 129.272C651.065 125.901 650.169 123.32 648.377 121.528C646.628 119.693 644.473 118.776 641.913 118.776C639.353 118.776 637.198 119.693 635.449 121.528C633.742 123.32 632.889 125.901 632.889 129.272C632.889 132.643 633.721 135.245 635.385 137.08C637.092 138.872 639.225 139.768 641.785 139.768ZM700.326 111.544V147H691.302V142.52C690.15 144.056 688.635 145.272 686.758 146.168C684.923 147.021 682.918 147.448 680.742 147.448C677.968 147.448 675.515 146.872 673.382 145.72C671.248 144.525 669.563 142.797 668.326 140.536C667.131 138.232 666.534 135.501 666.534 132.344V111.544H675.494V131.064C675.494 133.88 676.198 136.056 677.606 137.592C679.014 139.085 680.934 139.832 683.366 139.832C685.84 139.832 687.782 139.085 689.19 137.592C690.598 136.056 691.302 133.88 691.302 131.064V111.544H700.326ZM718.126 117.048C719.278 115.171 720.771 113.699 722.606 112.632C724.483 111.565 726.617 111.032 729.006 111.032V120.44H726.638C723.822 120.44 721.689 121.101 720.238 122.424C718.83 123.747 718.126 126.051 718.126 129.336V147H709.166V111.544H718.126V117.048ZM739.585 107.32C738.006 107.32 736.684 106.829 735.617 105.848C734.593 104.824 734.081 103.565 734.081 102.072C734.081 100.579 734.593 99.3413 735.617 98.36C736.684 97.336 738.006 96.824 739.585 96.824C741.164 96.824 742.465 97.336 743.489 98.36C744.556 99.3413 745.089 100.579 745.089 102.072C745.089 103.565 744.556 104.824 743.489 105.848C742.465 106.829 741.164 107.32 739.585 107.32ZM744.001 111.544V147H735.041V111.544H744.001ZM763.286 118.904V136.056C763.286 137.251 763.563 138.125 764.118 138.68C764.715 139.192 765.696 139.448 767.062 139.448H771.222V147H765.59C758.038 147 754.262 143.331 754.262 135.992V118.904H750.038V111.544H754.262V102.776H763.286V111.544H771.222V118.904H763.286ZM810.626 128.504C810.626 129.784 810.541 130.936 810.37 131.96H784.45C784.663 134.52 785.559 136.525 787.138 137.976C788.717 139.427 790.658 140.152 792.962 140.152C796.29 140.152 798.658 138.723 800.066 135.864H809.73C808.706 139.277 806.743 142.093 803.842 144.312C800.941 146.488 797.378 147.576 793.154 147.576C789.741 147.576 786.669 146.829 783.938 145.336C781.25 143.8 779.138 141.645 777.602 138.872C776.109 136.099 775.362 132.899 775.362 129.272C775.362 125.603 776.109 122.381 777.602 119.608C779.095 116.835 781.186 114.701 783.874 113.208C786.562 111.715 789.655 110.968 793.154 110.968C796.525 110.968 799.533 111.693 802.178 113.144C804.866 114.595 806.935 116.664 808.386 119.352C809.879 121.997 810.626 125.048 810.626 128.504ZM801.346 125.944C801.303 123.64 800.471 121.805 798.85 120.44C797.229 119.032 795.245 118.328 792.898 118.328C790.679 118.328 788.802 119.011 787.266 120.376C785.773 121.699 784.855 123.555 784.514 125.944H801.346ZM18.84 243.448C15.7253 243.448 12.9093 242.915 10.392 241.848C7.91733 240.781 5.95467 239.245 4.504 237.24C3.05333 235.235 2.30667 232.867 2.264 230.136H11.864C11.992 231.971 12.632 233.421 13.784 234.488C14.9787 235.555 16.6 236.088 18.648 236.088C20.7387 236.088 22.3813 235.597 23.576 234.616C24.7707 233.592 25.368 232.269 25.368 230.648C25.368 229.325 24.9627 228.237 24.152 227.384C23.3413 226.531 22.3173 225.869 21.08 225.4C19.8853 224.888 18.2213 224.333 16.088 223.736C13.1867 222.883 10.8187 222.051 8.984 221.24C7.192 220.387 5.63467 219.128 4.312 217.464C3.032 215.757 2.392 213.496 2.392 210.68C2.392 208.035 3.05333 205.731 4.376 203.768C5.69867 201.805 7.55467 200.312 9.944 199.288C12.3333 198.221 15.064 197.688 18.136 197.688C22.744 197.688 26.4773 198.819 29.336 201.08C32.2373 203.299 33.8373 206.413 34.136 210.424H24.28C24.1947 208.888 23.5333 207.629 22.296 206.648C21.1013 205.624 19.5013 205.112 17.496 205.112C15.7467 205.112 14.3387 205.56 13.272 206.456C12.248 207.352 11.736 208.653 11.736 210.36C11.736 211.555 12.12 212.557 12.888 213.368C13.6987 214.136 14.68 214.776 15.832 215.288C17.0267 215.757 18.6907 216.312 20.824 216.952C23.7253 217.805 26.0933 218.659 27.928 219.512C29.7627 220.365 31.3413 221.645 32.664 223.352C33.9867 225.059 34.648 227.299 34.648 230.072C34.648 232.461 34.0293 234.68 32.792 236.728C31.5547 238.776 29.7413 240.419 27.352 241.656C24.9627 242.851 22.1253 243.448 18.84 243.448ZM52.848 214.904V232.056C52.848 233.251 53.1253 234.125 53.68 234.68C54.2773 235.192 55.2587 235.448 56.624 235.448H60.784V243H55.152C47.6 243 43.824 239.331 43.824 231.992V214.904H39.6V207.544H43.824V198.776H52.848V207.544H60.784V214.904H52.848ZM82.9725 243.576C79.5592 243.576 76.4872 242.829 73.7565 241.336C71.0258 239.8 68.8712 237.645 67.2925 234.872C65.7565 232.099 64.9885 228.899 64.9885 225.272C64.9885 221.645 65.7778 218.445 67.3565 215.672C68.9778 212.899 71.1752 210.765 73.9485 209.272C76.7218 207.736 79.8152 206.968 83.2285 206.968C86.6418 206.968 89.7352 207.736 92.5085 209.272C95.2818 210.765 97.4578 212.899 99.0365 215.672C100.658 218.445 101.469 221.645 101.469 225.272C101.469 228.899 100.637 232.099 98.9725 234.872C97.3512 237.645 95.1325 239.8 92.3165 241.336C89.5432 242.829 86.4285 243.576 82.9725 243.576ZM82.9725 235.768C84.5938 235.768 86.1085 235.384 87.5165 234.616C88.9672 233.805 90.1192 232.611 90.9725 231.032C91.8258 229.453 92.2525 227.533 92.2525 225.272C92.2525 221.901 91.3565 219.32 89.5645 217.528C87.8152 215.693 85.6605 214.776 83.1005 214.776C80.5405 214.776 78.3858 215.693 76.6365 217.528C74.9298 219.32 74.0765 221.901 74.0765 225.272C74.0765 228.643 74.9085 231.245 76.5725 233.08C78.2792 234.872 80.4125 235.768 82.9725 235.768ZM117.001 213.048C118.153 211.171 119.646 209.699 121.481 208.632C123.358 207.565 125.492 207.032 127.881 207.032V216.44H125.513C122.697 216.44 120.564 217.101 119.113 218.424C117.705 219.747 117.001 222.051 117.001 225.336V243H108.041V207.544H117.001V213.048ZM166.876 224.504C166.876 225.784 166.791 226.936 166.62 227.96H140.7C140.913 230.52 141.809 232.525 143.388 233.976C144.967 235.427 146.908 236.152 149.212 236.152C152.54 236.152 154.908 234.723 156.316 231.864H165.98C164.956 235.277 162.993 238.093 160.092 240.312C157.191 242.488 153.628 243.576 149.404 243.576C145.991 243.576 142.919 242.829 140.188 241.336C137.5 239.8 135.388 237.645 133.852 234.872C132.359 232.099 131.612 228.899 131.612 225.272C131.612 221.603 132.359 218.381 133.852 215.608C135.345 212.835 137.436 210.701 140.124 209.208C142.812 207.715 145.905 206.968 149.404 206.968C152.775 206.968 155.783 207.693 158.428 209.144C161.116 210.595 163.185 212.664 164.636 215.352C166.129 217.997 166.876 221.048 166.876 224.504ZM157.596 221.944C157.553 219.64 156.721 217.805 155.1 216.44C153.479 215.032 151.495 214.328 149.148 214.328C146.929 214.328 145.052 215.011 143.516 216.376C142.023 217.699 141.105 219.555 140.764 221.944H157.596ZM183.208 233.592L175.72 251.576H169.96L174.12 233.592H183.208ZM230.26 220.088C232.777 220.557 234.847 221.816 236.468 223.864C238.089 225.912 238.9 228.259 238.9 230.904C238.9 233.293 238.303 235.405 237.108 237.24C235.956 239.032 234.271 240.44 232.052 241.464C229.833 242.488 227.209 243 224.18 243H204.916V198.328H223.348C226.377 198.328 228.98 198.819 231.156 199.8C233.375 200.781 235.039 202.147 236.148 203.896C237.3 205.645 237.876 207.629 237.876 209.848C237.876 212.451 237.172 214.627 235.764 216.376C234.399 218.125 232.564 219.363 230.26 220.088ZM213.876 216.76H222.068C224.201 216.76 225.844 216.291 226.996 215.352C228.148 214.371 228.724 212.984 228.724 211.192C228.724 209.4 228.148 208.013 226.996 207.032C225.844 206.051 224.201 205.56 222.068 205.56H213.876V216.76ZM222.9 235.704C225.076 235.704 226.761 235.192 227.956 234.168C229.193 233.144 229.812 231.693 229.812 229.816C229.812 227.896 229.172 226.403 227.892 225.336C226.612 224.227 224.884 223.672 222.708 223.672H213.876V235.704H222.9ZM255.001 213.048C256.153 211.171 257.646 209.699 259.481 208.632C261.358 207.565 263.492 207.032 265.881 207.032V216.44H263.513C260.697 216.44 258.564 217.101 257.113 218.424C255.705 219.747 255.001 222.051 255.001 225.336V243H246.041V207.544H255.001V213.048ZM269.612 225.144C269.612 221.56 270.316 218.381 271.724 215.608C273.175 212.835 275.116 210.701 277.548 209.208C280.023 207.715 282.775 206.968 285.804 206.968C288.449 206.968 290.753 207.501 292.716 208.568C294.721 209.635 296.321 210.979 297.516 212.6V207.544H306.54V243H297.516V237.816C296.364 239.48 294.764 240.867 292.716 241.976C290.711 243.043 288.385 243.576 285.74 243.576C282.753 243.576 280.023 242.808 277.548 241.272C275.116 239.736 273.175 237.581 271.724 234.808C270.316 231.992 269.612 228.771 269.612 225.144ZM297.516 225.272C297.516 223.096 297.089 221.24 296.236 219.704C295.383 218.125 294.231 216.931 292.78 216.12C291.329 215.267 289.772 214.84 288.108 214.84C286.444 214.84 284.908 215.245 283.5 216.056C282.092 216.867 280.94 218.061 280.044 219.64C279.191 221.176 278.764 223.011 278.764 225.144C278.764 227.277 279.191 229.155 280.044 230.776C280.94 232.355 282.092 233.571 283.5 234.424C284.951 235.277 286.487 235.704 288.108 235.704C289.772 235.704 291.329 235.299 292.78 234.488C294.231 233.635 295.383 232.44 296.236 230.904C297.089 229.325 297.516 227.448 297.516 225.272ZM334.939 207.032C339.163 207.032 342.576 208.376 345.179 211.064C347.782 213.709 349.083 217.421 349.083 222.2V243H340.123V223.416C340.123 220.6 339.419 218.445 338.011 216.952C336.603 215.416 334.683 214.648 332.251 214.648C329.776 214.648 327.814 215.416 326.363 216.952C324.955 218.445 324.251 220.6 324.251 223.416V243H315.291V207.544H324.251V211.96C325.446 210.424 326.96 209.229 328.795 208.376C330.672 207.48 332.72 207.032 334.939 207.032ZM355.299 225.144C355.299 221.56 356.003 218.381 357.411 215.608C358.862 212.835 360.825 210.701 363.3 209.208C365.774 207.715 368.526 206.968 371.556 206.968C373.86 206.968 376.057 207.48 378.148 208.504C380.238 209.485 381.902 210.808 383.14 212.472V195.64H392.228V243H383.14V237.752C382.03 239.501 380.473 240.909 378.468 241.976C376.462 243.043 374.137 243.576 371.492 243.576C368.505 243.576 365.774 242.808 363.3 241.272C360.825 239.736 358.862 237.581 357.411 234.808C356.003 231.992 355.299 228.771 355.299 225.144ZM383.204 225.272C383.204 223.096 382.777 221.24 381.924 219.704C381.07 218.125 379.918 216.931 378.468 216.12C377.017 215.267 375.46 214.84 373.796 214.84C372.132 214.84 370.596 215.245 369.188 216.056C367.78 216.867 366.628 218.061 365.732 219.64C364.878 221.176 364.452 223.011 364.452 225.144C364.452 227.277 364.878 229.155 365.732 230.776C366.628 232.355 367.78 233.571 369.188 234.424C370.638 235.277 372.174 235.704 373.796 235.704C375.46 235.704 377.017 235.299 378.468 234.488C379.918 233.635 381.07 232.44 381.924 230.904C382.777 229.325 383.204 227.448 383.204 225.272ZM450.597 243L445.733 238.2C441.594 241.912 436.538 243.768 430.565 243.768C427.279 243.768 424.378 243.213 421.861 242.104C419.386 240.952 417.466 239.352 416.101 237.304C414.735 235.213 414.053 232.803 414.053 230.072C414.053 227.128 414.885 224.483 416.549 222.136C418.213 219.789 420.666 217.891 423.909 216.44C422.757 215.032 421.925 213.688 421.413 212.408C420.901 211.085 420.645 209.677 420.645 208.184C420.645 206.136 421.178 204.301 422.245 202.68C423.311 201.016 424.826 199.715 426.789 198.776C428.794 197.837 431.119 197.368 433.765 197.368C436.453 197.368 438.757 197.88 440.677 198.904C442.597 199.928 444.026 201.293 444.965 203C445.903 204.707 446.309 206.605 446.181 208.696H437.477C437.519 207.288 437.178 206.221 436.453 205.496C435.727 204.728 434.746 204.344 433.509 204.344C432.314 204.344 431.311 204.707 430.501 205.432C429.733 206.115 429.349 207.011 429.349 208.12C429.349 209.187 429.669 210.253 430.309 211.32C430.949 212.344 431.994 213.624 433.445 215.16L444.708 226.296C444.794 226.211 444.858 226.125 444.901 226.04C444.943 225.955 444.986 225.869 445.029 225.784L448.677 219.704H458.021L453.541 227.576C452.687 229.24 451.77 230.819 450.789 232.312L461.605 243H450.597ZM430.821 236.344C434.319 236.344 437.413 235.107 440.101 232.632L429.093 221.752C424.954 223.587 422.885 226.189 422.885 229.56C422.885 231.48 423.61 233.101 425.061 234.424C426.511 235.704 428.431 236.344 430.821 236.344ZM506.635 220.088C509.152 220.557 511.222 221.816 512.843 223.864C514.464 225.912 515.275 228.259 515.275 230.904C515.275 233.293 514.678 235.405 513.483 237.24C512.331 239.032 510.646 240.44 508.427 241.464C506.208 242.488 503.584 243 500.555 243H481.291V198.328H499.723C502.752 198.328 505.355 198.819 507.531 199.8C509.75 200.781 511.414 202.147 512.523 203.896C513.675 205.645 514.251 207.629 514.251 209.848C514.251 212.451 513.547 214.627 512.139 216.376C510.774 218.125 508.939 219.363 506.635 220.088ZM490.251 216.76H498.443C500.576 216.76 502.219 216.291 503.371 215.352C504.523 214.371 505.099 212.984 505.099 211.192C505.099 209.4 504.523 208.013 503.371 207.032C502.219 206.051 500.576 205.56 498.443 205.56H490.251V216.76ZM499.275 235.704C501.451 235.704 503.136 235.192 504.331 234.168C505.568 233.144 506.187 231.693 506.187 229.816C506.187 227.896 505.547 226.403 504.267 225.336C502.987 224.227 501.259 223.672 499.083 223.672H490.251V235.704H499.275ZM520.112 225.144C520.112 221.56 520.816 218.381 522.224 215.608C523.675 212.835 525.616 210.701 528.048 209.208C530.523 207.715 533.275 206.968 536.304 206.968C538.949 206.968 541.253 207.501 543.216 208.568C545.221 209.635 546.821 210.979 548.016 212.6V207.544H557.04V243H548.016V237.816C546.864 239.48 545.264 240.867 543.216 241.976C541.211 243.043 538.885 243.576 536.24 243.576C533.253 243.576 530.523 242.808 528.048 241.272C525.616 239.736 523.675 237.581 522.224 234.808C520.816 231.992 520.112 228.771 520.112 225.144ZM548.016 225.272C548.016 223.096 547.589 221.24 546.736 219.704C545.883 218.125 544.731 216.931 543.28 216.12C541.829 215.267 540.272 214.84 538.608 214.84C536.944 214.84 535.408 215.245 534 216.056C532.592 216.867 531.44 218.061 530.544 219.64C529.691 221.176 529.264 223.011 529.264 225.144C529.264 227.277 529.691 229.155 530.544 230.776C531.44 232.355 532.592 233.571 534 234.424C535.451 235.277 536.987 235.704 538.608 235.704C540.272 235.704 541.829 235.299 543.28 234.488C544.731 233.635 545.883 232.44 546.736 230.904C547.589 229.325 548.016 227.448 548.016 225.272ZM585.439 207.032C589.663 207.032 593.076 208.376 595.679 211.064C598.282 213.709 599.583 217.421 599.583 222.2V243H590.623V223.416C590.623 220.6 589.919 218.445 588.511 216.952C587.103 215.416 585.183 214.648 582.751 214.648C580.276 214.648 578.314 215.416 576.863 216.952C575.455 218.445 574.751 220.6 574.751 223.416V243H565.791V207.544H574.751V211.96C575.946 210.424 577.46 209.229 579.295 208.376C581.172 207.48 583.22 207.032 585.439 207.032ZM629.096 243L617.064 227.896V243H608.104V195.64H617.064V222.584L628.968 207.544H640.616L625 225.336L640.744 243H629.096Z" fill="#140D4F" fill-opacity="0.9"/>
</svg>
